name C:\Users\u0101727\Documents\MyRepositories\paper-ad\predictivesimulations_2d/Results/PredSim_2D/IK_c12.mot
datacolumns 11
datarows 47
range 0.63317798 1.07448385
endheader
time	pelvis_tilt	pelvis_tx	pelvis_ty	hip_flexion_l	hip_flexion_r	knee_angle_l	knee_angle_r	ankle_angle_l	ankle_angle_r	lumbar_extension	
          0.63317798	        -15.04869817	          0.85495329	          0.89990397	         25.68923063	         11.36756810	        -10.65217988	        -40.88736387	          8.49755430	         -0.30759978	         10.29910914	
          0.64277159	        -15.06578700	          0.86692558	          0.90134146	         24.77034983	         12.64052764	        -10.40498737	        -41.78392505	          8.60035143	          0.66857169	         10.26074103	
          0.65236519	        -15.08039785	          0.87884204	          0.90253530	         23.83619444	         13.94592950	        -10.13294616	        -42.57256811	          8.74396285	          1.72470748	         10.21838830	
          0.66195880	        -15.09251481	          0.89071028	          0.90348874	         22.89120118	         15.27876426	         -9.84387394	        -43.24513916	          8.92252341	          2.84313408	         10.17236959	
          0.67155241	        -15.10226136	          0.90253762	          0.90421239	         21.93926204	         16.63305208	         -9.54482232	        -43.79409616	          9.12954846	          4.00604075	         10.12316154	
          0.68114601	        -15.10979990	          0.91433030	          0.90472319	         20.98454265	         18.00297798	         -9.24333212	        -44.21177200	          9.35736511	          5.19558120	         10.07119156	
          0.69073962	        -15.11527129	          0.92609387	          0.90504188	         20.03161887	         19.38303750	         -8.94728081	        -44.49041022	          9.59791821	          6.39393245	         10.01680280	
          0.70033322	        -15.11882148	          0.93783429	          0.90518989	         19.08530261	         20.76676214	         -8.66505140	        -44.62302835	          9.84325971	          7.58330012	          9.96037199	
          0.70992683	        -15.12066967	          0.94955863	          0.90518749	         18.14884224	         22.14722383	         -8.40227819	        -44.60398677	         10.08605529	          8.74601359	          9.90243180	
          0.71952043	        -15.12113297	          0.96127525	          0.90505277	         17.22304084	         23.51751109	         -8.16026797	        -44.42925267	         10.31965664	          9.86470421	          9.84372849	
          0.72911404	        -15.12049277	          0.97299289	          0.90480127	         16.30931282	         24.86978595	         -7.94178869	        -44.09677192	         10.53727100	         10.92263720	          9.78499061	
          0.73870765	        -15.11899345	          0.98471979	          0.90444611	         15.40980955	         26.19603658	         -7.75047592	        -43.60565912	         10.73280640	         11.90436346	          9.72684327	
          0.74830125	        -15.11687644	          0.99646500	          0.90399799	         14.52611004	         27.48746830	         -7.58937334	        -42.95892619	         10.90161446	         12.79648086	          9.67001974	
          0.75789486	        -15.11440020	          1.00823697	          0.90346604	         13.65914433	         28.73608747	         -7.46049225	        -42.16106818	         11.04073530	         13.58875476	          9.61521024	
          0.76748846	        -15.11182874	          1.02004233	          0.90285834	         12.80976659	         29.93567250	         -7.36490689	        -41.21648958	         11.14903081	         14.27509602	          9.56290515	
          0.77708207	        -15.10940007	          1.03188740	          0.90218144	         11.97868862	         31.08051326	         -7.30430162	        -40.13191481	         11.22721282	         14.85390778	          9.51354513	
          0.78667568	        -15.10733566	          1.04377651	          0.90144069	         11.16623143	         32.16768381	         -7.27957149	        -38.91281211	         11.27809095	         15.32802266	          9.46731725	
          0.79626928	        -15.10584739	          1.05571328	          0.90063990	         10.37228163	         33.19580857	         -7.29111872	        -37.56418402	         11.30611856	         15.70372102	          9.42428914	
          0.80586289	        -15.10515414	          1.06770106	          0.89978102	          9.59658921	         34.16430040	         -7.33895318	        -36.09141832	         11.31661709	         15.98937030	          9.38443920	
          0.81545649	        -15.10553837	          1.07974438	          0.89886420	          8.83854069	         35.07166543	         -7.42250628	        -34.50201307	         11.31485356	         16.19411333	          9.34784243	
          0.82505010	        -15.10739046	          1.09184969	          0.89788830	          8.09708824	         35.91444384	         -7.54072048	        -32.80371936	         11.30443863	         16.32706804	          9.31480564	
          0.83464370	        -15.11103351	          1.10402512	          0.89685218	          7.37188284	         36.68804730	         -7.69387949	        -31.00796674	         11.28619333	         16.39701717	          9.28571528	
          0.84423731	        -15.11653697	          1.11628267	          0.89575848	          6.66382324	         37.38575185	         -7.88565564	        -29.14093692	         11.25850072	         16.41210644	          9.26116233	
          0.85383092	        -15.12392855	          1.12864058	          0.89461961	          5.97494126	         37.99461036	         -8.12229040	        -27.23688523	         11.21532495	         16.37962725	          9.24244979	
          0.86342452	        -15.13323076	          1.14112035	          0.89345728	          5.30839053	         38.49883248	         -8.41090125	        -25.32800851	         11.14425486	         16.30597704	          9.23129966	
          0.87301813	        -15.14412530	          1.15374078	          0.89229401	          4.66857442	         38.88899850	         -8.75994844	        -23.44214267	         11.02900756	         16.19654544	          9.22889864	
          0.88261173	        -15.15581425	          1.16651643	          0.89114776	          4.06076248	         39.16497939	         -9.17929789	        -21.60117179	         10.85305164	         16.05545741	          9.23565129	
          0.89220534	        -15.16708403	          1.17946018	          0.89003286	          3.49024693	         39.33365292	         -9.67928495	        -19.82672276	         10.60211480	         15.88531237	          9.25148633	
          0.90179894	        -15.17671565	          1.19258589	          0.88896145	          2.96190497	         39.40223629	        -10.26957511	        -18.13357631	         10.26335095	         15.68730490	          9.27649623	
          0.91139255	        -15.18356631	          1.20590802	          0.88794272	          2.48017135	         39.37755472	        -10.95873624	        -16.53350688	          9.82460702	         15.46132881	          9.31091936	
          0.92098616	        -15.18638160	          1.21944074	          0.88698193	          2.04966090	         39.26720753	        -11.75576388	        -15.04355746	          9.27503504	         15.20610279	          9.35489417	
          0.93057976	        -15.18389816	          1.23319848	          0.88608016	          1.67589265	         39.07623560	        -12.67094702	        -13.67826650	          8.60366257	         14.91961258	          9.40871190	
          0.94017337	        -15.17471166	          1.24719480	          0.88523309	          1.36477678	         38.80941645	        -13.71521556	        -12.45750600	          7.80005264	         14.59897669	          9.47262384	
          0.94976697	        -15.15726500	          1.26144147	          0.88442959	          1.12197113	         38.47211181	        -14.89877326	        -11.41006844	          6.85669404	         14.24039853	          9.54677969	
          0.95936058	        -15.13011648	          1.27594957	          0.88365055	          0.95226283	         38.06465175	        -16.23090929	        -10.56683159	          5.77360929	         13.83951678	          9.63176942	
          0.96895419	        -15.09207537	          1.29072738	          0.88286446	          0.85856980	         37.57999186	        -17.72459250	         -9.96146300	          4.57315193	         13.39134496	          9.72865565	
          0.97854779	        -15.04298635	          1.30576862	          0.88202746	          0.84361621	         37.00014543	        -19.38576379	         -9.64211445	          3.26885757	         12.89107800	          9.83858267	
          0.98814140	        -14.98540540	          1.32105626	          0.88116295	          0.91463705	         36.25704008	        -21.21130094	         -9.72933132	          1.84072251	         12.33664383	          9.96552277	
          0.99773500	        -14.92754420	          1.33640443	          0.88039783	          1.07626852	         35.39382688	        -23.18262759	        -10.04342789	          0.37411502	         11.76737895	         10.10004909	
          1.00732861	        -14.88037654	          1.35147244	          0.87996157	          1.35536509	         34.53569383	        -25.20733179	        -10.32346920	         -0.90941679	         11.21721864	         10.21891776	
          1.01692221	        -14.85246602	          1.36601320	          0.88011583	          1.78018737	         33.71989559	        -27.14520278	        -10.58160036	         -1.91186048	         10.68604502	         10.30821423	
          1.02651582	        -14.84615645	          1.37996370	          0.88101638	          2.34664596	         32.94889188	        -28.93359977	        -10.81269589	         -2.66258233	         10.18850854	         10.36679788	
          1.03610943	        -14.85675791	          1.39340720	          0.88262247	          3.03796895	         32.20415466	        -30.59323966	        -11.00476326	         -3.17101889	          9.74090114	         10.40080926	
          1.04570303	        -14.87767864	          1.40646791	          0.88472434	          3.83361496	         31.46457001	        -32.15322433	        -11.14888355	         -3.44991621	          9.35470938	         10.41727476	
          1.05529664	        -14.90355362	          1.41925329	          0.88708945	          4.71802292	         30.71333099	        -33.63113333	        -11.23823828	         -3.51483574	          9.03620502	         10.42150914	
          1.06489024	        -14.93094373	          1.43183762	          0.88953507	          5.67916105	         29.94098996	        -35.03544218	        -11.27091141	         -3.38081023	          8.78701246	         10.41670865	
          1.07448385	        -14.95795574	          1.44426787	          0.89193761	          6.70802047	         29.14302245	        -36.36747312	        -11.24734274	         -3.06414332	          8.60609468	         10.40463210	
